<?xml version="1.0" encoding="utf-8"?>
<!-- Generator: Adobe Illustrator 18.0.0, SVG Export Plug-In . SVG Version: 6.00 Build 0)  -->
<!DOCTYPE svg PUBLIC "-//W3C//DTD SVG 1.1//EN" "http://www.w3.org/Graphics/SVG/1.1/DTD/svg11.dtd">
<svg version="1.1" xmlns="http://www.w3.org/2000/svg" xmlns:xlink="http://www.w3.org/1999/xlink" x="0px" y="0px"
	 viewBox="0 0 6795 1800" enable-background="new 0 0 6795 1800" xml:space="preserve">
<g id="road">
	<polygon fill="#4F3F3B" points="-16.2,832.6 6794.3,810.6 6774.8,978.6 -32.9,990.1 	"/>
	<polygon fill="#AFAEAE" points="-26.4,777.1 6803.5,749.6 6798,812.6 -29.2,838.6 	"/>
</g>
<g id="anz">
	<polygon fill="#A09C9C" points="2081,299 2543,377 2555,651 2093,663 	"/>
	<polygon fill="#C6C1C1" points="2669,725 2667,231 2543,375 2549,649 	"/>
	<polygon fill="#D8D0D0" points="2669,725 2658,200.7 2787,203.7 2808,722.8 	"/>
	<polygon fill="#666161" points="1981,209 2187,411 2543,413 2689,203 	"/>
	<polygon fill="#A09C9C" points="2164.5,772.6 2633,771 2526,651.1 2226,654.1 	"/>
	<path fill="#D8D0D0" d="M1436,123.1c4.7-1.5,1387.4-6,1387.4-6l1.9,57L1436,172.6V123.1z"/>
	<polygon fill="#EFEDED" points="1436,172.6 1489.1,232.6 2775.6,231.1 2831.3,174 	"/>
	<polygon fill="#49433C" points="1480.5,232.6 2076,234.1 2080.5,292.6 1483.6,289.6 	"/>
	<polygon fill="#BCB7B7" points="2226,656.1 2224.3,607 2164,651.8 2168.2,775.6 	"/>
	<polygon fill="#BCB7B7" points="2526,651.1 2525,607 2626.5,663.1 2631,771 	"/>
	<polygon fill="#E5E1E1" points="2861,771 2631,773 2626.5,663.1 2859,660.1 	"/>
	<polygon fill="#677072" points="2226.3,654.5 2221.5,458 2523,455 2526,651.1 	"/>
	<polygon fill="#D8D0D0" points="1505,297 1507,703 2095,685 2094,291 	"/>
	<polygon fill="#C6C1C1" points="2075,287 2186.7,381 2192.7,601.6 2085,683 	"/>
	<path fill="#E5E1E1" d="M1441.2,773.2l735.9-3.9l-3.6-119.3l-732-1.9C1441.6,648.1,1439.2,775.2,1441.2,773.2z"/>
	<polygon fill="#8A979B" points="1526,645 2072,645 2064,361.6 1521,361 	"/>
	<polygon fill="#49433C" points="2187.1,411.1 2076,290.8 2076,246 2186.7,381 	"/>
	<polygon fill="#49433C" points="2543,413 2187.1,411.1 2186.7,381 2547,386.8 	"/>
	<polygon fill="#49433C" points="2667,231 2547,386.8 2543,413 2664,281.8 	"/>
	<polygon fill="#49433C" points="2791,235.6 2791,280.6 2663.7,282 2666.6,231.2 	"/>
</g>
<g id="wharfshed">
	<rect x="5942" y="411" fill="#FFF6C7" width="730" height="354"/>
	<polygon fill="#FFF6C7" points="6290,189 6776,467 5846,467 	"/>
	<line fill="none" stroke="#F7931E" stroke-miterlimit="10" x1="5939" y1="468.5" x2="6674" y2="468.5"/>
	<line fill="none" stroke="#F7931E" stroke-miterlimit="10" x1="5936.5" y1="484.6" x2="6668.5" y2="486.1"/>
	<line fill="none" stroke="#F7931E" stroke-miterlimit="10" x1="5933.5" y1="505.6" x2="6668.5" y2="507.1"/>
	<line fill="none" stroke="#F7931E" stroke-miterlimit="10" x1="5933.5" y1="528.1" x2="6670" y2="526.6"/>
	<line fill="none" stroke="#F7931E" stroke-miterlimit="10" x1="5933.5" y1="547.6" x2="6676" y2="543.1"/>
	<line fill="none" stroke="#F7931E" stroke-miterlimit="10" x1="5933.5" y1="561.1" x2="6670" y2="559.6"/>
	<line fill="none" stroke="#F7931E" stroke-miterlimit="10" x1="5938" y1="577.6" x2="6674.5" y2="573.1"/>
	<line fill="none" stroke="#F7931E" stroke-miterlimit="10" x1="5930.5" y1="591.1" x2="6676" y2="588.1"/>
	<line fill="none" stroke="#F7931E" stroke-miterlimit="10" x1="5932" y1="606.1" x2="6679" y2="610.6"/>
	<line fill="none" stroke="#F7931E" stroke-miterlimit="10" x1="5930.5" y1="630.1" x2="6674.5" y2="625.6"/>
	<line fill="none" stroke="#F7931E" stroke-miterlimit="10" x1="5932" y1="648.1" x2="6674.5" y2="639.1"/>
	<line fill="none" stroke="#F7931E" stroke-miterlimit="10" x1="5933.5" y1="663.1" x2="6676" y2="666.1"/>
	<line fill="none" stroke="#F7931E" stroke-miterlimit="10" x1="5930.5" y1="676.6" x2="6671.5" y2="681.1"/>
	<line fill="none" stroke="#F7931E" stroke-miterlimit="10" x1="5924.5" y1="699.1" x2="6677.5" y2="694.6"/>
	<line fill="none" stroke="#F7931E" stroke-miterlimit="10" x1="5926" y1="721.6" x2="6674.5" y2="711.1"/>
	<line fill="none" stroke="#F7931E" stroke-miterlimit="10" x1="5933.5" y1="738.1" x2="6671.5" y2="724.6"/>
	<line fill="none" stroke="#F7931E" stroke-miterlimit="10" x1="5929" y1="747.1" x2="6673" y2="739.6"/>
	<line fill="none" stroke="#F7931E" stroke-miterlimit="10" x1="5875" y1="447.1" x2="6737.5" y2="445.6"/>
	<line fill="none" stroke="#F7931E" stroke-miterlimit="10" x1="5894.5" y1="432.1" x2="6719.5" y2="423.1"/>
	<line fill="none" stroke="#F7931E" stroke-miterlimit="10" x1="5915.5" y1="414.1" x2="6676" y2="405.1"/>
	<line fill="none" stroke="#F7931E" stroke-miterlimit="10" x1="5953" y1="394.6" x2="6652" y2="388.6"/>
	<line fill="none" stroke="#F7931E" stroke-miterlimit="10" x1="5984.5" y1="369.1" x2="6610" y2="366.1"/>
	<line fill="none" stroke="#F7931E" stroke-miterlimit="10" x1="6028" y1="340.6" x2="6559" y2="334.6"/>
	<line fill="none" stroke="#F7931E" stroke-miterlimit="10" x1="6074" y1="307.5" x2="6530" y2="307.5"/>
	<line fill="none" stroke="#F7931E" stroke-miterlimit="10" x1="6118" y1="283.6" x2="6454" y2="277.6"/>
	<line fill="none" stroke="#F7931E" stroke-miterlimit="10" x1="6167" y1="262.5" x2="6425" y2="262.5"/>
	<line fill="none" stroke="#F7931E" stroke-miterlimit="10" x1="6194.5" y1="243.1" x2="6404.5" y2="246.1"/>
	<line fill="none" stroke="#F7931E" stroke-miterlimit="10" x1="6217" y1="234.1" x2="6380.5" y2="225.1"/>
	<line fill="none" stroke="#F7931E" stroke-miterlimit="10" x1="6235" y1="214.6" x2="6356.5" y2="210.1"/>
	<polygon fill="#5CACBF" points="6671.8,765.4 6671.5,467 6686,467 6685,760.6 	"/>
	<polygon fill="#5CACBF" points="5941,467 5942,765.2 5920,763.9 5917,467 	"/>
	<polygon fill="#5CACBF" points="5852.5,465.1 5839,444.1 6290.5,156.1 6290,189 	"/>
	<polygon fill="#5CACBF" points="6776,467 6290,189 6290.5,156.1 6780.9,447.1 	"/>
</g>
<g id="hobsons">
	<rect x="4451" y="282" fill="#110C0A" width="1166" height="82"/>
	<rect x="4448" y="687" fill="#110C0A" width="1166" height="82"/>
	<rect x="4867" y="324" fill="#261B17" width="362" height="76"/>
	<rect x="4446" y="192" fill="#8A979B" width="1184" height="43"/>
	<rect x="4442" y="346.5" fill="#8A979B" width="1184" height="399.9"/>
	<path fill="#684A3C" d="M4893,746h-96V302h96V746z"/>
	<path fill="#684A3C" d="M5303,748h-96V304h96V748z"/>
	<rect x="4437" y="302" fill="#684A3C" width="384" height="52"/>
	<rect x="5279" y="304" fill="#684A3C" width="353" height="52"/>
	<polygon fill="#5C737C" points="4893,719 4929,667 5181,665 5207,721 	"/>
	<polygon fill="#382A21" points="4929,694 4927,346 4893,302 4893,746 	"/>
	<polygon fill="#382A21" points="5207,304 5207,748 5181,692 5179,348 	"/>
	<rect x="4437" y="218" fill="#684A3C" width="1192" height="64"/>
	<rect x="4446" y="-279" fill="#6D4D48" width="1192" height="430"/>
	<rect x="5173" y="-242" fill="#8A979B" width="190" height="356"/>
	<rect x="5396" y="-243" fill="#8A979B" width="190" height="360"/>
	<rect x="4943" y="-238" fill="#8A979B" width="190" height="352"/>
	<rect x="4713" y="-236" fill="#8A979B" width="190" height="352"/>
	<rect x="4483" y="-238" fill="#8A979B" width="190" height="356"/>
	<polygon fill="#684A3C" points="5655,137 4421,137 4440,204 5632,204 	"/>
	<rect x="4917.1" y="500.8" fill="#303535" width="270" height="18"/>
	<rect x="5301.1" y="431.8" fill="#303535" width="330" height="18"/>
	<rect x="4440" y="428.8" fill="#303535" width="357" height="18"/>
	<rect x="4977.1" y="515.8" fill="#303535" width="8.5" height="179"/>
	<rect x="5123.4" y="509.8" fill="#303535" width="7.5" height="183.5"/>
	<rect x="4926.3" y="413" fill="#303535" width="256" height="11.3"/>
	<rect x="5051" y="517.7" fill="#303535" width="4" height="176"/>
	<rect x="4927" y="690.7" fill="#303535" width="254.9" height="4"/>
	<rect x="5455" y="355" fill="#303535" width="10" height="391"/>
	<rect x="4613.8" y="354" fill="#303535" width="7.3" height="388"/>
</g>
<g id="commonwealth">
	<rect x="2883" y="68.4" fill="#555C5E" width="1499.7" height="68.2"/>
	<rect x="3042" y="230.8" fill="#CEDBDD" width="1179.1" height="447"/>
	<rect x="3030" y="198.8" fill="#98A3A5" width="1197.1" height="42"/>
	<polygon fill="#5B5653" points="2973,765 3036.1,678 4224,675 4296.1,758.8 	"/>
	<polygon fill="#494543" points="3375.1,761.9 3456.1,674.8 3450.1,587.8 3375.1,656.8 2967,653.8 2967,759 	"/>
	<polygon fill="#938D8A" points="3450.1,587.8 3048,587.8 2883,653.8 3375.1,656.8 	"/>
	<polygon fill="#35393A" points="3029.9,199 2889,133 4377,137 4227.1,198.8 	"/>
	<rect x="3294" y="133" fill="#555C5E" width="80" height="628"/>
	<rect x="3837" y="129" fill="#555C5E" width="80" height="628"/>
	<rect x="2885" y="137" fill="#555C5E" width="80" height="628"/>
	<rect x="4297" y="129" fill="#555C5E" width="80" height="628"/>
	<rect x="4293.2" y="134.7" fill="#232526" width="84" height="105"/>
	<rect x="3834.1" y="134.7" fill="#232526" width="84" height="105"/>
	<rect x="3291.1" y="137.7" fill="#232526" width="84" height="105"/>
	<rect x="2883" y="134.7" fill="#232526" width="84" height="105"/>
	<rect x="4293.2" y="653.8" fill="#232526" width="84" height="105"/>
	<rect x="3834.1" y="653.8" fill="#232526" width="84" height="105"/>
	<rect x="3291.1" y="656.8" fill="#232526" width="84" height="105"/>
	<rect x="2883" y="653.8" fill="#232526" width="84" height="105"/>
	<polygon fill="#3D3A39" points="3534.1,677.8 3533.7,587.7 3449.7,590.3 3453,677.7 	"/>
	<rect x="3532.5" y="457.6" fill="#3D3A39" width="19.5" height="220.5"/>
	<rect x="3739.5" y="457.6" fill="#3D3A39" width="19.5" height="220.5"/>
	<rect x="3532.5" y="457.6" fill="#3D3A39" width="223.5" height="15"/>
	<rect x="3402.1" y="236.8" fill="#879091" width="45" height="352"/>
</g>
<g id="bwired">
	<rect x="312.4" y="559.8" fill="#E3F4FF" width="393" height="221.1"/>
	<polygon fill="#5B4329" points="73,522.3 74,569 315,556.3 317,525.7 	"/>
	<polygon fill="#D1DBE0" points="265,565.1 312.4,559.8 312.5,781 264,783.5 	"/>
	<path fill="#E3F4FF" d="M265,566H108v219h156C264,785,265.8,565,265,566z"/>
	<polygon fill="#D1DBE0" points="108.1,565.3 65,559 65,774 108.1,784.5 	"/>
	<polygon fill="#DBFFF8" points="143.4,565 143.7,730.8 220,729 220,565 	"/>
	<polygon fill="#DBFFF8" points="71,713 98,719 98,565 70,552 	"/>
	<polygon fill="#DBFFF8" points="274,716 274,567 301,556 301,709 	"/>
	<path fill="#947B5F" d="M65.2,559.6c-1.2-1.3-12.4-1-12.4-1l-1.3-19.8L99,554h172l40.7-11H719v18H312l-31,13H97L65.2,559.6z"/>
	<polygon fill="#D1B08A" points="217.8,455.9 644.4,464.7 719.5,543 312,543 	"/>
	<polygon fill="#C69C6D" points="62,539 136.7,533.7 225.3,534.3 312.3,539.7 327,528 189,413 48,524 	"/>
	<path fill="#9DA4A8" d="M108.1,784.5L264,785l-1-58H108C108,727,108.1,787,108.1,784.5z"/>
	<polygon fill="#7B8B93" points="63,718 108,727 108.1,784.5 65,774 	"/>
	<polygon fill="#7B8B93" points="263,727 312,719.8 312.5,781 264,785 	"/>
	<polygon fill="#9DA4A8" points="705.4,780.9 704,724 311,721 312.5,781 	"/>
	<path fill="#DBFFF8" d="M485,718c0-4-0.7-143.8-0.7-143.8l184.7-0.4L668.3,718H485z"/>
	<polygon fill="#FF8671" points="64.8,712 107.8,719 108,727.3 65.1,719.3 	"/>
	<polygon fill="#FF8671" points="263.3,727.5 263.5,720.3 108,719 108,727 	"/>
	<polygon fill="#FF8671" points="312,719.8 263.3,727.5 263.5,720.3 312,713.3 	"/>
	<rect id="door" x="367.2" y="599.9" fill="#FF8671" width="66.4" height="172.9"/>
	<polygon fill="#FF8671" points="366.8,721.6 311.5,721.5 312,713 705,717.5 705,724 	"/>
</g>
<g id="twenty4">
	<polygon fill="#FF8566" points="804,780 804,117 1422,117 1422,775 	"/>
	<polygon fill="#0B0300" points="1009.7,441 1339.3,440.3 1345,766.3 1016,767.7 	"/>
	<polygon fill="#808080" points="1016.2,767.7 1083,703 1310,703 1345,766.3 	"/>
	<polygon fill="#230F00" points="1310,703 1310,480 1339.3,440.3 1345,766.3 	"/>
	<polygon fill="#230F00" points="1083,703 1083,479 1009.7,441 1016.2,767.7 	"/>
	<polygon fill="#778B96" points="1093.7,540.7 1095.7,692.3 1298.3,693.7 1296.3,541.3 	"/>
	<polygon fill="#778B96" points="1095,483.7 1096.6,534.1 1297,534.7 1297,484.3 	"/>
	<polygon fill="#778B96" points="1024,325 1145,325 1145,160 1025.7,162.7 	"/>
	<polygon fill="#778B96" points="1217,321 1338,321 1338,156 1218.7,158.7 	"/>
	<polygon fill="#394144" points="1075.5,709.5 1071,553 1035,543 1039,743 	"/>
	<polygon fill="#F76D52" points="986,781.6 986,118.6 724.6,115.6 723.4,786.1 	"/>
</g>
<g id="truck">
	<path id="body_3_" display="none" fill="#DAD8D2" d="M770,683.3c0.6-2.6,16.8-8.7,21.7-8.7s459.3,1.9,459.3,1.9l1,226.2l-84.4,7.6
		c0,0-2.2-24.6-12.4-35.1c-10.9-11.2-21.5-13.7-34.6-13.8c-9.4-0.1-17.3,3.4-26.1,7.7c-4.1,2-14.3,12.9-15.1,14.7
		c-5.6,12.8-10.7,25.5-10.7,25.5l-253.4,1.3c0,0-9-22.2-20.4-35.3s-19.6-16.4-39.2-15.6c-19.6,0.8-27.8,8.1-34.3,18.7
		c-6.5,10.6-10.6,17.6-13.1,23.6c-6.5,0-43.3,0-43.3,0l4.1-85.8l73.6-33.5C742.6,782.7,768.6,689,770,683.3z"/>
	<path fill="#F0EEE8" d="M959.9,601.4c0.9-10.7,6.1-13,3.7-18.2c-2.3-5.1-8.4-14.9-13-17.2c-4.7-2.3-19.6-7.9-30.3-12.1
		c-10.7-4.2-23.8-3.3-32.1,5.6c-8.4,8.9-34,25.6-34,25.6s-1.4-16.8-7.5,11.6c-6.1,28.4-9.3,18.6-3.7,34.9s7.9,28,15.4,32.6
		c7.5,4.7,7.5,9.8,27.5,4.7c20-5.1,16.8-7.9,22.4-3.3c5.6,4.7,2.8,10.3,12.6,8.4c9.8-1.9,43.8-68.5,43.3-70.4
		S959.9,601.4,959.9,601.4z"/>
	<circle id="front-wheel_1_" fill="#333333" stroke="#000000" stroke-miterlimit="10" cx="763.8" cy="864.7" r="45.2"/>
	<circle id="rear-wheel_1_" fill="#333333" stroke="#000000" stroke-miterlimit="10" cx="1127.2" cy="865.6" r="46.6"/>
	<circle fill="#E6E6E6" stroke="#000000" stroke-miterlimit="10" cx="1126.7" cy="866.1" r="35.4"/>
	<circle fill="#CCCCCC" cx="1126.7" cy="866.1" r="23.3"/>
	<circle fill="#E6E6E6" stroke="#000000" stroke-miterlimit="10" cx="763.8" cy="863.7" r="35.4"/>
	<circle fill="#CCCCCC" cx="763.8" cy="863.7" r="23.3"/>
	<path id="ice-cream_1_" fill="#FFF9DF" d="M966,596.8c0.9-10.7,6.1-13,3.7-18.2c-2.3-5.1-8.4-14.9-13-17.2
		c-4.7-2.3-19.6-7.9-30.3-12.1c-10.7-4.2-23.8-3.3-32.1,5.6s-34,25.6-34,25.6s-1.4-16.8-7.5,11.6c-6.1,28.4-9.3,18.6-3.7,34.9
		s7.9,28,15.4,32.6c7.5,4.7,7.5,9.8,27.5,4.7s16.8-7.9,22.4-3.3s2.8,10.3,12.6,8.4c9.8-1.9,43.8-68.5,43.3-70.4
		C969.7,597.2,966,596.8,966,596.8z"/>
	<path id="cone" fill="#FFE09C" d="M1155.2,669l-185.4-74.5c0,0-13.5,28.4-18.6,39.1c-5.1,10.7-23.8,30.3-24.2,35.9
		S1155.2,669,1155.2,669z"/>
	<path id="ice-cream-hilight" fill="#FFFBEC" d="M859.3,592.9c-1.4,7-4.9,10.5-5.6,14s-6.3,12.6-1.4,18.9c4.9,6.3,7,7.7,9.8,16.1
		s7.7,7.7,7.7,7.7s0.7-8.4-0.7-19.6c-1.4-11.2-0.7-11.2,0-20.3s2.1-6.3-2.8-11.9s-3.5-6.3-3.5-9.8S859.3,592.9,859.3,592.9z"/>
	<path id="body_2_" fill="#F2F2F2" d="M777,676.7c0.6-2.6,16.8-8.7,21.7-8.7s459.3,1.9,459.3,1.9l1,226.2l-84.4,7.6
		c0,0-2.2-24.6-12.4-35.1c-10.9-11.2-21.5-13.7-34.6-13.8c-9.4-0.1-17.3,3.4-26.1,7.7c-4.1,2-14.3,12.9-15.1,14.7
		c-5.6,12.8-10.7,25.5-10.7,25.5l-253.4,1.3c0,0-9-22.2-20.4-35.3c-11.4-13.1-19.6-16.4-39.2-15.6c-19.6,0.8-27.8,8.3-34.3,19
		c-6.5,10.6-10.6,16.9-13.1,23.9c-6.5,0-43.3,0-43.3,0l4.1-86.1l73.6-33.6C749.6,776.3,775.6,682.4,777,676.7z"/>
	<path id="body" fill="#F02673" d="M1258.8,822.8l0.3,73.4l-84.4,7.6c0,0-2.2-24.6-12.4-35.1c-10.9-11.2-21.5-13.7-34.6-13.8
		c-9.4-0.1-17.3,3.4-26.1,7.7c-4.1,2-14.3,12.9-15.1,14.7c-5.6,12.8-10.7,25.5-10.7,25.5l-253.4,1.3c0,0-9-22.2-20.4-35.3
		c-11.4-13.1-19.6-16.4-39.2-15.6c-19.6,0.8-27.8,8.3-34.3,19c-6.5,10.6-10.6,16.9-13.1,23.9c-6.5,0-43.3,0-43.3,0l3.3-68.9
		l0.8-17.2l79.9-19.2L1258.8,822.8z"/>
	<path fill="#4D4D4D" stroke="#333333" stroke-miterlimit="10" d="M825.3,701.5c0,0,69.7,0,70.8,0c1.2,0,4.7,3.7,4.9,5.1
		c0.2,1.4,0.2,69.2,0.2,70.8c0,1.6-4.2,4.6-6.1,4.6s-68-0.2-70.1-0.5c-2.1-0.2-5.1-2.6-5.1-5.6c0-3,0.2-67,0.2-69.4
		C820.2,704.2,823.2,701.5,825.3,701.5z"/>
	<path fill="#4D4D4D" stroke="#333333" stroke-miterlimit="10" d="M781.9,701.5h19.6c0,0,1.6,1.6,1.6,2.7c0,1.2-0.2,73.9-0.2,73.9
		l-1.9,1.4l-31.9-0.2c0,0-2.1-1.3-2.8-2C765.6,776.7,780.6,704.5,781.9,701.5z"/>
	<g>
		<path d="M1001.5,757.6l10.1-2.2c0.7,1.7,1.3,3.5,1.7,5.3c0.6,2.6,1.2,5.7,1.6,9.3c0.2,1.8,0.4,5.6,0.7,11.5
			c2.9-3.2,4.6-5.2,5.2-5.9c3.1-4.1,4.9-6.6,5.3-7.3c0.7-1.2,1.3-2.3,1.6-3.2c0.3-0.7,0.4-1.4,0.4-2c0-0.6-0.5-1.3-1.6-2.1
			c-1.1-0.8-1.6-1.7-1.6-2.7c0-0.7,0.3-1.4,0.9-2c0.6-0.6,1.3-0.9,2.1-0.9c1,0,1.8,0.4,2.6,1.2c0.7,0.8,1.1,1.8,1.1,3
			c0,1.2-0.2,2.3-0.6,3.4c-0.6,1.8-1.7,3.9-3.3,6.4c-1.7,2.5-4.3,6-8,10.2c-0.5,0.5-3,3.2-7.7,8h-1.3c-0.6-14.7-1.7-23.8-3.5-27.5
			c-0.6-1.2-1.5-1.8-2.9-1.8c-0.6,0-1.4,0.1-2.5,0.3L1001.5,757.6z"/>
		<path d="M1065.1,755.5l-6.8,23.6l-0.8,3.2c-0.1,0.3-0.1,0.5-0.1,0.7c0,0.4,0.1,0.7,0.3,1c0.2,0.2,0.4,0.3,0.7,0.3
			c0.3,0,0.7-0.2,1.2-0.6c0.9-0.7,2.1-2,3.6-4.1l1.2,0.8c-1.6,2.4-3.2,4.3-4.9,5.5c-1.7,1.3-3.3,1.9-4.7,1.9c-1,0-1.7-0.2-2.2-0.7
			c-0.5-0.5-0.8-1.2-0.8-2.2c0-1.2,0.3-2.7,0.8-4.5l0.7-2.6c-3.1,4-5.9,6.8-8.4,8.3c-1.8,1.1-3.6,1.7-5.4,1.7
			c-1.7,0-3.2-0.7-4.4-2.1c-1.2-1.4-1.8-3.3-1.8-5.8c0-3.7,1.1-7.6,3.3-11.7c2.2-4.1,5-7.4,8.5-9.8c2.7-2,5.2-2.9,7.5-2.9
			c1.4,0,2.6,0.4,3.6,1.1c0.9,0.7,1.6,2,2.1,3.7l1.3-4L1065.1,755.5z M1052.7,757.3c-1.5,0-3,0.7-4.7,2.1c-2.4,2-4.5,4.9-6.4,8.8
			c-1.8,3.9-2.8,7.4-2.8,10.5c0,1.6,0.4,2.8,1.2,3.7c0.8,0.9,1.7,1.4,2.7,1.4c2.5,0,5.2-1.9,8.2-5.6c4-5,6-10,6-15.3
			c0-2-0.4-3.4-1.1-4.3C1055.1,757.7,1054,757.3,1052.7,757.3z"/>
		<path d="M1083,755.5l-4.6,15.9c4.3-6.5,7.6-10.7,10-12.8c2.3-2,4.5-3.1,6.7-3.1c1.2,0,2.1,0.4,2.9,1.2c0.7,0.8,1.1,1.8,1.1,3
			c0,1.4-0.3,3.3-1,5.6l-4.2,14.7c-0.5,1.7-0.7,2.7-0.7,3.1c0,0.3,0.1,0.6,0.3,0.8c0.2,0.2,0.4,0.3,0.6,0.3c0.3,0,0.6-0.1,1-0.4
			c1.2-1,2.6-2.5,4.1-4.5l1.1,0.6c-2.2,3.1-4.2,5.3-6.1,6.6c-1.4,0.9-2.6,1.3-3.6,1.3c-0.9,0-1.5-0.3-2.1-0.8
			c-0.5-0.5-0.8-1.2-0.8-2.1c0-1.1,0.4-3,1.2-5.7l4.1-14c0.5-1.7,0.7-3.1,0.7-4.1c0-0.5-0.2-0.8-0.5-1.1c-0.3-0.3-0.7-0.4-1.1-0.4
			c-0.6,0-1.4,0.3-2.3,0.8c-1.7,1-3.5,2.8-5.3,5.2c-1.9,2.4-3.8,5.5-5.9,9.2c-1.1,2-2,4.1-2.7,6.5l-1.7,5.7h-5.2l6.4-21.8
			c0.7-2.6,1.1-4.2,1.1-4.7c0-0.5-0.2-1-0.6-1.4s-0.9-0.6-1.5-0.6c-0.3,0-0.8,0.1-1.5,0.2l-1.3,0.2l-0.2-1.3L1083,755.5z"/>
		<path d="M1119.3,755.5l-6.9,24.4c-0.5,1.6-0.7,2.6-0.7,2.9c0,0.4,0.1,0.7,0.3,0.9c0.2,0.2,0.5,0.3,0.8,0.3c0.4,0,0.8-0.2,1.3-0.6
			c1.3-1,2.7-2.5,4-4.5l1.2,0.8c-1.6,2.4-3.4,4.4-5.6,6.1c-1.6,1.2-3.1,1.8-4.5,1.8c-1,0-1.7-0.3-2.3-0.8c-0.6-0.6-0.9-1.3-0.9-2.1
			s0.3-2.3,0.9-4.3l4.5-15.6c0.7-2.5,1.1-4.1,1.1-4.8c0-0.5-0.2-0.9-0.5-1.2c-0.4-0.3-0.8-0.5-1.4-0.5c-0.5,0-1.6,0.1-3.2,0.4v-1.3
			L1119.3,755.5z M1118.8,741.7c1,0,1.8,0.3,2.5,1c0.7,0.7,1,1.5,1,2.4s-0.3,1.8-1,2.5c-0.7,0.7-1.5,1-2.4,1c-1,0-1.8-0.3-2.5-1
			c-0.7-0.7-1-1.5-1-2.5s0.3-1.8,1-2.4C1117,742,1117.9,741.7,1118.8,741.7z"/>
		<path d="M1143.9,737.5l-11.9,41.4c-0.6,2.1-0.9,3.3-0.9,3.8c0,0.3,0.1,0.6,0.3,0.9c0.2,0.2,0.5,0.3,0.8,0.3c0.5,0,0.9-0.2,1.4-0.6
			c1.2-1,2.5-2.4,3.8-4.4l1,1.1c-2.2,3.1-4.2,5.3-6.1,6.5c-1.4,0.9-2.7,1.3-3.9,1.3c-0.9,0-1.6-0.3-2.2-0.9
			c-0.6-0.6-0.9-1.3-0.9-2.1c0-0.8,0.4-2.6,1.1-5.1l9.5-32.6c0.7-2.7,1.1-4.2,1.1-4.6c0-0.6-0.2-1-0.7-1.4c-0.4-0.4-1.1-0.5-2.1-0.5
			c-0.5,0-1.3,0.1-2.4,0.3v-1.3L1143.9,737.5z"/>
		<path d="M1163.7,737.5l-11.9,41.4c-0.6,2.1-0.9,3.3-0.9,3.8c0,0.3,0.1,0.6,0.3,0.9c0.2,0.2,0.5,0.3,0.8,0.3c0.5,0,0.9-0.2,1.4-0.6
			c1.2-1,2.5-2.4,3.8-4.4l1,1.1c-2.2,3.1-4.2,5.3-6.1,6.5c-1.4,0.9-2.7,1.3-3.9,1.3c-0.9,0-1.6-0.3-2.2-0.9
			c-0.6-0.6-0.9-1.3-0.9-2.1c0-0.8,0.4-2.6,1.1-5.1l9.5-32.6c0.7-2.7,1.1-4.2,1.1-4.6c0-0.6-0.2-1-0.7-1.4c-0.4-0.4-1.1-0.5-2.1-0.5
			c-0.5,0-1.3,0.1-2.4,0.3v-1.3L1163.7,737.5z"/>
		<path d="M1195.7,755.5l-6.8,23.6l-0.8,3.2c-0.1,0.3-0.1,0.5-0.1,0.7c0,0.4,0.1,0.7,0.3,1c0.2,0.2,0.4,0.3,0.7,0.3
			c0.3,0,0.7-0.2,1.2-0.6c0.9-0.7,2.1-2,3.6-4.1l1.2,0.8c-1.6,2.4-3.2,4.3-4.9,5.5c-1.7,1.3-3.3,1.9-4.7,1.9c-1,0-1.7-0.2-2.2-0.7
			c-0.5-0.5-0.8-1.2-0.8-2.2c0-1.2,0.3-2.7,0.8-4.5l0.7-2.6c-3.1,4-5.9,6.8-8.4,8.3c-1.8,1.1-3.6,1.7-5.4,1.7
			c-1.7,0-3.2-0.7-4.4-2.1c-1.2-1.4-1.8-3.3-1.8-5.8c0-3.7,1.1-7.6,3.3-11.7c2.2-4.1,5-7.4,8.5-9.8c2.7-2,5.2-2.9,7.5-2.9
			c1.4,0,2.6,0.4,3.6,1.1c0.9,0.7,1.6,2,2.1,3.7l1.3-4L1195.7,755.5z M1183.3,757.3c-1.5,0-3,0.7-4.7,2.1c-2.4,2-4.5,4.9-6.4,8.8
			c-1.8,3.9-2.8,7.4-2.8,10.5c0,1.6,0.4,2.8,1.2,3.7c0.8,0.9,1.7,1.4,2.7,1.4c2.5,0,5.2-1.9,8.2-5.6c4-5,6-10,6-15.3
			c0-2-0.4-3.4-1.1-4.3C1185.7,757.7,1184.7,757.3,1183.3,757.3z"/>
	</g>
	<g>
		<path d="M973.2,717.4v32.4h-7v-24.5c-0.4,0.3-0.8,0.7-1.4,1c-0.5,0.3-1.1,0.6-1.7,0.8c-0.6,0.2-1.2,0.4-1.8,0.6
			c-0.6,0.2-1.3,0.3-1.9,0.4v-5.9c1.8-0.5,3.5-1.2,5.1-2c1.6-0.8,3.1-1.7,4.3-2.7H973.2z"/>
		<path d="M993.6,750.3c-7.5,0-11.3-5.3-11.3-15.9c0-5.5,1-9.7,3.1-12.5c2-2.9,5-4.3,8.9-4.3c7.4,0,11,5.4,11,16.1
			c0,5.4-1,9.5-3,12.3C1000.3,748.9,997.4,750.3,993.6,750.3z M993.9,722.9c-3,0-4.5,3.8-4.5,11.4c0,7.1,1.5,10.7,4.4,10.7
			c2.9,0,4.3-3.7,4.3-11C998.2,726.6,996.8,722.9,993.9,722.9z"/>
		<path d="M1019.6,750.3c-7.5,0-11.3-5.3-11.3-15.9c0-5.5,1-9.7,3.1-12.5c2-2.9,5-4.3,8.9-4.3c7.4,0,11,5.4,11,16.1
			c0,5.4-1,9.5-3,12.3C1026.3,748.9,1023.4,750.3,1019.6,750.3z M1019.9,722.9c-3,0-4.5,3.8-4.5,11.4c0,7.1,1.5,10.7,4.4,10.7
			c2.9,0,4.3-3.7,4.3-11C1024.2,726.6,1022.8,722.9,1019.9,722.9z"/>
		<path d="M1042.3,734.1c-2.3,0-4.1-0.7-5.4-2.1c-1.4-1.4-2.1-3.3-2.1-5.8c0-2.6,0.7-4.7,2.2-6.3c1.5-1.5,3.4-2.3,5.9-2.3
			c2.3,0,4.2,0.7,5.5,2.1c1.3,1.4,2,3.4,2,5.9c0,2.6-0.7,4.7-2.2,6.2C1046.7,733.4,1044.7,734.1,1042.3,734.1z M1065.4,718.1
			l-20.6,31.6h-5.4l20.6-31.6H1065.4z M1042.7,721.5c-2.1,0-3.2,1.5-3.2,4.5c0,2.8,1,4.2,3.1,4.2c2.1,0,3.1-1.5,3.1-4.4
			C1045.7,723,1044.7,721.5,1042.7,721.5z M1062,750.2c-2.3,0-4.1-0.7-5.4-2.1c-1.4-1.4-2.1-3.3-2.1-5.8c0-2.6,0.7-4.7,2.2-6.3
			c1.5-1.5,3.4-2.3,5.9-2.3c2.4,0,4.2,0.7,5.5,2.1c1.3,1.4,2,3.3,2,5.9c0,2.6-0.7,4.7-2.2,6.2C1066.4,749.4,1064.4,750.2,1062,750.2
			z M1062.3,737.6c-2.1,0-3.2,1.5-3.2,4.5c0,2.8,1,4.2,3.1,4.2c2.1,0,3.1-1.5,3.1-4.4c0-1.4-0.3-2.4-0.8-3.2
			C1064,737.9,1063.3,737.6,1062.3,737.6z"/>
	</g>
</g>
<g id="Layer_5">
</g>
</svg>
